<svg xmlns="http://www.w3.org/2000/svg" viewBox="0 9 147.5 37" data-asc="0.92" width="147.5" height="37"><defs/><g fill="#000000"><g transform="translate(0, 0)"><path d="M0 46L0 9L4.50 9L4.50 24.15Q5.90 22.10 8.05 20.75Q10.20 19.40 13.10 19.40Q17.50 19.40 19.68 22.05Q21.85 24.70 21.85 29.05L21.85 46L17.35 46L17.35 29.55Q17.35 26.75 16.05 25.05Q14.75 23.35 12.40 23.35Q10.10 23.35 8.03 24.97Q5.95 26.60 4.50 28.80L4.50 46L0 46ZM29.60 46L29.60 20L34.10 20L34.10 46L29.60 46M31.85 15.55Q30.55 15.55 29.63 14.60Q28.70 13.65 28.70 12.40Q28.70 10.95 29.55 10.10Q30.40 9.25 31.85 9.25Q33.15 9.25 34.08 10.17Q35 11.10 35 12.40Q35 13.80 34.15 14.67Q33.30 15.55 31.85 15.55ZM42.10 46L42.10 20L46.60 20L46.60 46L42.10 46M44.35 15.55Q43.05 15.55 42.13 14.60Q41.20 13.65 41.20 12.40Q41.20 10.95 42.05 10.10Q42.90 9.25 44.35 9.25Q45.65 9.25 46.58 10.17Q47.50 11.10 47.50 12.40Q47.50 13.80 46.65 14.67Q45.80 15.55 44.35 15.55ZM54.60 46L54.60 20L59.10 20L59.10 46L54.60 46M56.85 15.55Q55.55 15.55 54.63 14.60Q53.70 13.65 53.70 12.40Q53.70 10.95 54.55 10.10Q55.40 9.25 56.85 9.25Q58.15 9.25 59.08 10.17Q60 11.10 60 12.40Q60 13.80 59.15 14.67Q58.30 15.55 56.85 15.55ZM67.10 46L67.10 20L71.60 20L71.60 46L67.10 46M69.35 15.55Q68.05 15.55 67.13 14.60Q66.20 13.65 66.20 12.40Q66.20 10.95 67.05 10.10Q67.90 9.25 69.35 9.25Q70.65 9.25 71.58 10.17Q72.50 11.10 72.50 12.40Q72.50 13.80 71.65 14.67Q70.80 15.55 69.35 15.55ZM79.60 46L79.60 20L84.10 20L84.10 46L79.60 46M81.85 15.55Q80.55 15.55 79.63 14.60Q78.70 13.65 78.70 12.40Q78.70 10.95 79.55 10.10Q80.40 9.25 81.85 9.25Q83.15 9.25 84.07 10.17Q85 11.10 85 12.40Q85 13.80 84.15 14.67Q83.30 15.55 81.85 15.55ZM92.10 46L92.10 20L96.60 20L96.60 46L92.10 46M94.35 15.55Q93.05 15.55 92.13 14.60Q91.20 13.65 91.20 12.40Q91.20 10.95 92.05 10.10Q92.90 9.25 94.35 9.25Q95.65 9.25 96.57 10.17Q97.50 11.10 97.50 12.40Q97.50 13.80 96.65 14.67Q95.80 15.55 94.35 15.55ZM104.60 46L104.60 20L109.10 20L109.10 46L104.60 46M106.85 15.55Q105.55 15.55 104.63 14.60Q103.70 13.65 103.70 12.40Q103.70 10.95 104.55 10.10Q105.40 9.25 106.85 9.25Q108.15 9.25 109.07 10.17Q110 11.10 110 12.40Q110 13.80 109.15 14.67Q108.30 15.55 106.85 15.55ZM117.10 46L117.10 20L121.60 20L121.60 46L117.10 46M119.35 15.55Q118.05 15.55 117.13 14.60Q116.20 13.65 116.20 12.40Q116.20 10.95 117.05 10.10Q117.90 9.25 119.35 9.25Q120.65 9.25 121.57 10.17Q122.50 11.10 122.50 12.40Q122.50 13.80 121.65 14.67Q120.80 15.55 119.35 15.55ZM129.60 46L129.60 20L134.10 20L134.10 46L129.60 46M131.85 15.55Q130.55 15.55 129.63 14.60Q128.70 13.65 128.70 12.40Q128.70 10.95 129.55 10.10Q130.40 9.25 131.85 9.25Q133.15 9.25 134.07 10.17Q135 11.10 135 12.40Q135 13.80 134.15 14.67Q133.30 15.55 131.85 15.55ZM142.10 46L142.10 20L146.60 20L146.60 46L142.10 46M144.35 15.55Q143.05 15.55 142.13 14.60Q141.20 13.65 141.20 12.40Q141.20 10.95 142.05 10.10Q142.90 9.25 144.35 9.25Q145.65 9.25 146.57 10.17Q147.50 11.10 147.50 12.40Q147.50 13.80 146.65 14.67Q145.80 15.55 144.35 15.55Z"/></g></g></svg>